<svg width="201" height="48" viewBox="0 0 201 48" fill="none" xmlns="http://www.w3.org/2000/svg">
<path d="M47.8271 30.4181L26.0526 44.9917L4.27816 30.4181L12.5084 7.08359L39.5968 7.08359L47.8271 30.4181Z" stroke="#EF6D58" stroke-width="5"/>
<path d="M25.5099 33L15.7021 26.4357L19.4484 15.8143L31.5714 15.8143L35.3177 26.4357L25.5099 33Z" fill="#EF6D58"/>
<path d="M81.3785 14.3H87.6785V32H84.1505V16.496L84.2225 16.544L80.7665 32H75.8945L72.3785 16.508L72.4505 16.472V32H68.9105V14.3H75.2105L78.4385 30.236H78.1265L81.3785 14.3ZM92.1783 26.744V24.284H100.626L100.266 24.908C100.266 24.844 100.266 24.784 100.266 24.728C100.266 24.664 100.266 24.604 100.266 24.548C100.266 24.092 100.158 23.656 99.9423 23.24C99.7263 22.816 99.3903 22.472 98.9343 22.208C98.4863 21.936 97.9103 21.8 97.2063 21.8C96.5023 21.8 95.8943 21.952 95.3823 22.256C94.8783 22.552 94.4903 22.98 94.2183 23.54C93.9543 24.1 93.8223 24.776 93.8223 25.568C93.8223 26.384 93.9503 27.084 94.2063 27.668C94.4703 28.244 94.8583 28.688 95.3703 29C95.8903 29.312 96.5343 29.468 97.3023 29.468C97.7983 29.468 98.2263 29.424 98.5863 29.336C98.9463 29.24 99.2383 29.12 99.4623 28.976C99.6943 28.832 99.8703 28.672 99.9903 28.496C100.11 28.32 100.182 28.148 100.206 27.98H103.878C103.83 28.516 103.646 29.044 103.326 29.564C103.006 30.076 102.562 30.54 101.994 30.956C101.426 31.364 100.734 31.688 99.9183 31.928C99.1103 32.168 98.1863 32.288 97.1463 32.288C95.7383 32.288 94.5103 32.008 93.4623 31.448C92.4143 30.88 91.6023 30.1 91.0263 29.108C90.4503 28.108 90.1623 26.956 90.1623 25.652C90.1623 24.332 90.4543 23.176 91.0383 22.184C91.6303 21.184 92.4503 20.408 93.4983 19.856C94.5543 19.296 95.7743 19.016 97.1583 19.016C98.5743 19.016 99.7983 19.3 100.83 19.868C101.862 20.428 102.658 21.216 103.218 22.232C103.778 23.24 104.058 24.416 104.058 25.76C104.058 25.96 104.054 26.152 104.046 26.336C104.038 26.52 104.026 26.656 104.01 26.744H92.1783ZM95.1543 17.564L98.0103 14.3H100.854L97.6023 17.564H95.1543ZM114.339 32V27.068C114.339 26.596 114.339 26.188 114.339 25.844C114.339 25.492 114.339 25.2 114.339 24.968C114.339 24.64 114.319 24.316 114.279 23.996C114.247 23.676 114.167 23.38 114.039 23.108C113.919 22.828 113.731 22.608 113.475 22.448C113.219 22.28 112.871 22.196 112.431 22.196C112.023 22.196 111.671 22.284 111.375 22.46C111.079 22.628 110.835 22.864 110.643 23.168C110.459 23.464 110.323 23.808 110.235 24.2C110.147 24.584 110.103 24.988 110.103 25.412L109.083 24.572C109.083 23.492 109.279 22.536 109.671 21.704C110.063 20.864 110.619 20.208 111.339 19.736C112.067 19.256 112.927 19.016 113.919 19.016C114.983 19.016 115.811 19.244 116.403 19.7C117.003 20.148 117.423 20.748 117.663 21.5C117.911 22.244 118.035 23.068 118.035 23.972C118.035 24.316 118.035 24.78 118.035 25.364C118.035 25.948 118.035 26.648 118.035 27.464V32H114.339ZM106.383 32V19.256H110.103V32H106.383ZM122.259 32V27.08C122.259 26.592 122.259 26.172 122.259 25.82C122.259 25.468 122.259 25.176 122.259 24.944C122.259 24.592 122.239 24.256 122.199 23.936C122.159 23.608 122.075 23.312 121.947 23.048C121.819 22.784 121.627 22.576 121.371 22.424C121.115 22.272 120.767 22.196 120.327 22.196C119.919 22.196 119.567 22.284 119.271 22.46C118.983 22.628 118.747 22.86 118.563 23.156C118.379 23.452 118.243 23.788 118.155 24.164C118.075 24.54 118.035 24.932 118.035 25.34L117.015 24.512C117.015 23.448 117.207 22.504 117.591 21.68C117.983 20.856 118.535 20.208 119.247 19.736C119.967 19.256 120.827 19.016 121.827 19.016C122.867 19.016 123.687 19.236 124.287 19.676C124.895 20.116 125.327 20.704 125.583 21.44C125.847 22.168 125.979 22.984 125.979 23.888C125.979 24.248 125.979 24.712 125.979 25.28C125.979 25.848 125.979 26.54 125.979 27.356V32H122.259ZM128.622 32V19.256H132.306V32H128.622ZM130.458 17.18C129.882 17.18 129.378 17.028 128.946 16.724C128.522 16.42 128.31 15.992 128.31 15.44C128.31 14.88 128.522 14.448 128.946 14.144C129.378 13.84 129.882 13.688 130.458 13.688C131.042 13.688 131.546 13.84 131.97 14.144C132.402 14.448 132.618 14.88 132.618 15.44C132.618 16 132.402 16.432 131.97 16.736C131.546 17.032 131.042 17.18 130.458 17.18ZM144.023 32V26.588C144.023 26.284 144.023 26.008 144.023 25.76C144.023 25.512 144.023 25.288 144.023 25.088C144.023 24.56 143.955 24.08 143.819 23.648C143.683 23.208 143.439 22.856 143.087 22.592C142.735 22.328 142.227 22.196 141.563 22.196C140.987 22.196 140.487 22.328 140.063 22.592C139.647 22.856 139.327 23.224 139.103 23.696C138.879 24.168 138.767 24.712 138.767 25.328L137.735 24.584C137.735 23.48 137.975 22.512 138.455 21.68C138.935 20.848 139.583 20.196 140.399 19.724C141.223 19.252 142.135 19.016 143.135 19.016C144.183 19.016 145.043 19.228 145.715 19.652C146.395 20.068 146.899 20.652 147.227 21.404C147.563 22.148 147.731 23.02 147.731 24.02C147.731 24.428 147.731 24.884 147.731 25.388C147.731 25.892 147.731 26.408 147.731 26.936V32H144.023ZM135.047 32V19.256H138.767V32H135.047ZM150.372 32V19.256H154.056V32H150.372ZM152.208 17.18C151.632 17.18 151.128 17.028 150.696 16.724C150.272 16.42 150.06 15.992 150.06 15.44C150.06 14.88 150.272 14.448 150.696 14.144C151.128 13.84 151.632 13.688 152.208 13.688C152.792 13.688 153.296 13.84 153.72 14.144C154.152 14.448 154.368 14.88 154.368 15.44C154.368 16 154.152 16.432 153.72 16.736C153.296 17.032 152.792 17.18 152.208 17.18ZM163.217 32.288C161.817 32.288 160.589 32.008 159.533 31.448C158.477 30.88 157.657 30.092 157.073 29.084C156.497 28.076 156.209 26.912 156.209 25.592C156.209 24.256 156.497 23.1 157.073 22.124C157.657 21.14 158.477 20.376 159.533 19.832C160.589 19.288 161.817 19.016 163.217 19.016C164.265 19.016 165.193 19.172 166.001 19.484C166.809 19.788 167.485 20.192 168.029 20.696C168.573 21.2 168.985 21.752 169.265 22.352C169.545 22.952 169.685 23.548 169.685 24.14C169.685 24.148 169.685 24.164 169.685 24.188C169.685 24.204 169.685 24.22 169.685 24.236H166.001C166.001 24.188 165.997 24.144 165.989 24.104C165.989 24.056 165.981 24.008 165.965 23.96C165.901 23.624 165.761 23.308 165.545 23.012C165.329 22.716 165.025 22.476 164.633 22.292C164.249 22.1 163.769 22.004 163.193 22.004C162.577 22.004 162.025 22.14 161.537 22.412C161.057 22.684 160.677 23.088 160.397 23.624C160.117 24.152 159.977 24.808 159.977 25.592C159.977 26.36 160.117 27.024 160.397 27.584C160.677 28.136 161.057 28.56 161.537 28.856C162.025 29.152 162.577 29.3 163.193 29.3C163.825 29.3 164.341 29.204 164.741 29.012C165.141 28.812 165.441 28.548 165.641 28.22C165.841 27.884 165.961 27.516 166.001 27.116H169.685C169.685 27.708 169.545 28.312 169.265 28.928C168.993 29.536 168.585 30.092 168.041 30.596C167.505 31.1 166.833 31.508 166.025 31.82C165.217 32.132 164.281 32.288 163.217 32.288Z" fill="white"/>
</svg>
