<svg width="63" height="61" viewBox="0 0 63 61" fill="none" xmlns="http://www.w3.org/2000/svg">
<ellipse cx="31.5" cy="30.5" rx="31.5" ry="30.5" fill="#EF6C57"/>
<path fill-rule="evenodd" clip-rule="evenodd" d="M24.625 18C25.0688 18 25.4286 18.3358 25.4286 18.75V19.5H38.2857V18.75C38.2857 18.3358 38.6455 18 39.0893 18C39.5331 18 39.8929 18.3358 39.8929 18.75V19.5H41.5C43.2752 19.5 44.7143 20.8431 44.7143 22.5V39C44.7143 40.6569 43.2752 42 41.5 42H22.2143C20.4391 42 19 40.6569 19 39V22.5C19 20.8431 20.4391 19.5 22.2143 19.5H23.8214V18.75C23.8214 18.3358 24.1812 18 24.625 18ZM40.6225 22.5H23.0902C22.608 22.5 22.2143 22.836 22.2143 23.25V24.75C22.2143 25.164 22.6064 25.5 23.0902 25.5H40.6241C41.1063 25.5 41.5 25.164 41.5 24.75V23.25C41.5 22.836 41.1079 22.5 40.6225 22.5ZM36.4439 30.219C36.7581 30.5123 36.7581 30.9877 36.4439 31.281L31.6225 35.781C31.4717 35.9221 31.267 36.0013 31.0536 36.0013C30.8401 36.0013 30.6354 35.9221 30.4846 35.781L28.0739 33.531C27.8707 33.3413 27.7913 33.0648 27.8657 32.8056C27.9401 32.5465 28.1569 32.3441 28.4346 32.2746C28.7123 32.2052 29.0085 32.2793 29.2118 32.469L31.0536 34.1895L35.3061 30.219C35.6203 29.9257 36.1297 29.9257 36.4439 30.219Z" fill="white"/>
</svg>
