<svg width="72" height="72" viewBox="0 0 72 72" fill="none" xmlns="http://www.w3.org/2000/svg">
<circle cx="36" cy="36" r="36" fill="#EF6C57"/>
<path fill-rule="evenodd" clip-rule="evenodd" d="M24.8125 23C24.3638 23 24 23.3414 24 23.7625V23.7625V42.8174V42.825V42.8921C24.0173 44.0824 24.5299 45.2192 25.4284 46.0595C26.3414 46.919 27.5818 47.4014 28.875 47.4H49.1875C49.6362 47.4 50 47.0586 50 46.6375V39.0125C50 38.5914 49.6362 38.25 49.1875 38.25H40.6741L47.3821 31.9822C47.5349 31.8392 47.6208 31.645 47.6208 31.4424C47.6208 31.2398 47.5349 31.0456 47.3821 30.9025L41.6378 25.5101C41.3205 25.2125 40.8062 25.2125 40.4889 25.5101L33.75 31.8099V23.7625C33.75 23.3414 33.3862 23 32.9375 23H24.8125ZM45.658 31.4394L33.75 42.5718V33.9617L41.0609 27.1267L45.658 31.4394ZM31.3125 42.825C31.3125 41.5617 30.2212 40.5375 28.875 40.5375C27.5288 40.5375 26.4375 41.5617 26.4375 42.825C26.4375 44.0884 27.5288 45.1125 28.875 45.1125C30.2212 45.1125 31.3125 44.0884 31.3125 42.825ZM39.0443 39.775H48.375V45.875H32.5199L39.0443 39.775Z" fill="white"/>
</svg>
