<svg width="70" height="68" viewBox="0 0 70 68" fill="none" xmlns="http://www.w3.org/2000/svg">
<ellipse cx="35" cy="34" rx="35" ry="34" fill="#EF6C57"/>
<path fill-rule="evenodd" clip-rule="evenodd" d="M34.4776 17C34.873 17 35.2345 17.2271 35.4116 17.5868L36.1681 19.1264H45.9701C47.7012 19.1264 49.1045 20.5545 49.1045 22.3161V38.2648H19.8507V22.3161C19.8507 20.5545 21.254 19.1264 22.9851 19.1264H32.7851L33.5436 17.5868C33.7207 17.2271 34.0822 17 34.4776 17ZM18.806 40.3912C18.229 40.3912 17.7612 40.8673 17.7612 41.4545C17.7612 42.0417 18.229 42.5177 18.806 42.5177H24.7821L23.0164 49.7031C22.8918 50.2666 23.2321 50.8283 23.7828 50.9681C24.3335 51.108 24.8932 50.7748 25.0433 50.2177L25.8896 46.7707H43.0657L43.9119 50.2177C44.062 50.7748 44.6217 51.108 45.1724 50.9681C45.7231 50.8283 46.0634 50.2666 45.9388 49.7031L44.1731 42.5177H50.1493C50.7263 42.5177 51.194 42.0417 51.194 41.4545C51.194 40.8673 50.7263 40.3912 50.1493 40.3912H18.806ZM26.4119 44.6442L26.9343 42.5177H42.0209L42.5433 44.6442H26.4119Z" fill="white"/>
</svg>
