<svg width="67" height="64" viewBox="0 0 67 64" fill="none" xmlns="http://www.w3.org/2000/svg">
<ellipse cx="33.5" cy="32" rx="33.5" ry="32" fill="#EF6C57"/>
<path fill-rule="evenodd" clip-rule="evenodd" d="M35 16C35.3784 16 35.7244 16.2138 35.894 16.5523L36.618 18.0013H46C47.6569 18.0013 49 19.3454 49 21.0034V36.0139H21V21.0034C21 19.3454 22.3431 18.0013 24 18.0013H33.38L34.106 16.5523C34.2756 16.2138 34.6216 16 35 16ZM20 38.0153C19.4477 38.0153 19 38.4633 19 39.016C19 39.5687 19.4477 40.0167 20 40.0167H25.72L24.03 46.7794C23.9107 47.3098 24.2364 47.8384 24.7635 47.97C25.2906 48.1016 25.8263 47.788 25.97 47.2637L26.78 44.0195H43.22L44.03 47.2637C44.1737 47.788 44.7094 48.1016 45.2365 47.97C45.7636 47.8384 46.0893 47.3098 45.97 46.7794L44.28 40.0167H50C50.5523 40.0167 51 39.5687 51 39.016C51 38.4633 50.5523 38.0153 50 38.0153H20ZM27.28 42.0181L27.78 40.0167H42.22L42.72 42.0181H27.28Z" fill="white"/>
</svg>
